<svg xmlns="http://www.w3.org/2000/svg" fill="none" viewBox="0 0 4094 250">
  <path fill="#000" fill-rule="evenodd" d="M3523.49 1.47c-3.72 2.021-5.87 8.157-5.87 16.762v7.23l-3.86.044c-2.12.023-5.05.822-6.5 1.773-2.41 1.576-2.64 2.303-2.64 8.274V42.1l-12.52 5.99c-7.97 3.814-13.22 5.773-14.43 5.389-1.17-.372-2.23-.019-2.75.916-1.02 1.82-41.98 18.744-44.4 18.346-.92-.153-2.52.447-3.54 1.333-1.73 1.496-13.29 6.334-34.7 14.515-4.86 1.858-9.32 3.084-9.9 2.724-.58-.361-1.58.049-2.21.909-.63.86-4.94 3.142-9.59 5.07-4.65 1.93-13.62 5.778-19.92 8.554-7.6 3.347-12.23 4.854-13.75 4.473-1.56-.391-2.29-.133-2.29.813 0 1.414-27.21 13.323-31.96 13.986-2.16.303-2.55-.145-3.28-3.782-.95-4.743-3.29-7.22-8.55-9.053-5.49-1.913-8.58-1.614-11.11 1.076-1.87 1.988-2.21 3.349-1.99 7.985.14 3.073.06 5.773-.18 5.999-.23.225-5.38.927-11.43 1.559-6.05.632-16.3 2.042-22.78 3.133-12.3 2.073-56.58 4.896-77.11 4.915-9.92.01-12.09-.262-13.1-1.644-.69-.944-2.73-1.708-4.74-1.778-2.25-.078-5.56-1.469-9.13-3.844-3.09-2.047-5.84-3.722-6.12-3.722-.28 0-8.05-4.774-17.26-10.61-9.22-5.835-17.67-11.176-18.77-11.869-3.24-2.022-45.6-25.587-49.99-27.806-4.65-2.356-19.7-10.68-27.16-15.022-3.95-2.3-5.26-3.672-5.57-5.849l-.42-2.843 19.57-.015c10.77-.007 20.58-.282 21.81-.61 3.07-.825 3.99-6.084 1.8-10.325-1.4-2.694-1.89-2.995-3.18-1.926-.98.815-1.38 2.439-1.14 4.57l.39 3.306h-16.47l-.32-3.243c-.45-4.718-3.37-4.93-4.23-.308l-.67 3.55h-13.91v-3.617c0-3.087-.28-3.541-1.94-3.108-1.46.383-2.19-.211-2.96-2.418-1.81-5.188-15.53-8.77-20.67-5.398-2.52 1.65-2.59 1.945-1.93 8.494.66 6.645.62 6.828-2.16 8.801-2.91 2.067-17.42 7.88-34.4 13.784-11.49 3.997-60.48 17.523-77.94 21.523-16.87 3.864-76.5 13.573-92 14.979-18.5 1.678-81.85 2.505-83.27 1.088-.66-.662-4.66-1.126-9.68-1.126-4.7 0-12.31-.525-16.91-1.168-6.38-.892-8.82-.892-10.24-.002-1.03.642-4.51 1.168-7.74 1.168-6.21 0-35.78-2.72-37.91-3.486-.69-.247-1.25-1.93-1.25-3.738 0-4.828-1.65-9.775-4.15-12.435-3.13-3.335-10.58-3.316-13.73.033-1.94 2.064-2.26 3.588-2.42 11.602l-.2 9.226-4.99 1.895c-6.37 2.415-25.6 5.954-28.39 5.225-1.22-.321-2.12-.084-2.12.561 0 .615-.86 1.117-1.91 1.117-1.05 0-8.97 1.35-17.59 3-18.48 3.536-19.69 3.615-19.29 1.25.17-1.019-.33-1.75-1.21-1.75-.82 0-1.63.955-1.8 2.121-.34 2.4-.78 2.492-21.4 4.477-9.99.961-13.02.962-14.17.005-1.16-.958-1.9-.951-3.47.033-1.61 1-5.06.997-17.33-.019-33.17-2.745-33.03-2.727-34-4.464-1.16-2.063-2.83-2.153-2.83-.153 0 2.038-3.65 1.936-18.39-.511-16.75-2.782-16.61-2.74-16.61-5.008 0-1.094-.67-1.981-1.5-1.981-.82 0-1.5.675-1.5 1.5s-.65 1.5-1.44 1.5c-.8 0-9.67-2.474-19.73-5.497-10.05-3.023-19.75-5.772-21.55-6.11-2.35-.44-3.28-1.159-3.28-2.528 0-3.674-4.07-4.117-31.25-3.4l-25.75.678V77.213l3.13-.626c1.72-.343 9.03-.614 16.25-.602 7.22.013 18.86-.75 25.88-1.695 11.35-1.528 12.94-1.981 14.32-4.093 1.4-2.126 1.4-2.617.04-4.69-2.03-3.105-4.5-3.307-33.47-2.74-20.1.395-24.51.235-25.24-.913-.48-.766-.88-4.619-.89-8.562l-.02-7.17 6.25-.565c3.44-.31 14.35-.908 24.25-1.33 17.14-.727 18.02-.864 18.3-2.83.16-1.136-.18-3.316-.76-4.843l-1.06-2.776-23.02.728-23.03.73.68-8.104c.67-8.078.66-8.113-2.33-10.907-1.65-1.542-3.29-3.738-3.66-4.88-.62-1.972-5.36-4.97-6.33-4.006-.25.25-1.98-.184-3.84-.962-5.6-2.342-10.96-1.854-13.38 1.22-1.73 2.208-2.07 4.047-2.07 11.36 0 4.8-.27 10.716-.6 13.147-.56 4.066-.94 4.55-4.75 6.02-3.97 1.528-62.81 16.431-92.04 23.309-7.64 1.797-14.64 3.072-15.56 2.831-1.95-.508-28.71 4.495-31.3 5.852-.96.505-1.75 1.484-1.75 2.178 0 .75-3.38 2.082-8.36 3.295-6.89 1.678-8.52 1.802-9.25.696-.67-1.007-1.76-1.113-4.39-.425-1.92.503-7.87 1.67-13.2 2.593-8.95 1.547-9.8 1.895-10.94 4.466-.94 2.135-2.3 3.04-5.8 3.874-46.78 11.162-49.52 11.734-87.06 18.209-9.08 1.566-12 1.296-12-1.106 0-2.008-1.37-5.212-3.14-7.37-.49-.586-1.85-2.358-3.04-3.939-1.19-1.582-4.45-3.94-7.24-5.24-11.98-5.578-17.56-1.195-17.57 13.801l-.01 5.685-10.25.43c-5.64.237-14.3 1.166-19.25 2.065-27.76 5.046-42.87 7.96-50 9.644-16.25 3.842-32.64 6.99-36.38 6.99-5.32 0-19.66 2.546-31.62 5.615-8.12 2.084-12.91 2.631-25.5 2.91-14.89.33-28.62 1.993-41.46 5.021-9.03 2.13-8.73 2.293-7.98-4.401.82-7.206-.09-9.055-5.84-11.927-5.22-2.61-5.97-2.657-12.92-.811-9.7 2.575-10.8 3.749-10.8 11.521v3.797l-11.75.601c-6.46.33-20.52 1.536-31.25 2.681-25.53 2.726-67.37 3.616-98 2.084-30.52-1.526-78.7-6.997-102-11.581-18.63-3.666-26.87-4.641-46.77-5.531-26.08-1.166-26.23-1.198-26.23-5.441v-3.245l7.65-.646c12.04-1.018 13.05-.91 13.67 1.458.68 2.591 3.07 2.004 3.49-.855.39-2.645 5.32-3.598 16.03-3.104 7.38.341 7.67.267 7.99-1.969.18-1.278-.4-3.866-1.3-5.75-2.01-4.24-5.96-4.776-7.66-1.04-.75 1.654-2.2 2.572-4.73 2.989-5.59.925-10.63.737-11.8-.44-.76-.753-1.5-.627-2.56.429-1 .998-4.72 1.73-11.22 2.207l-9.72.714.33-13.936c.44-18.528.69-18.157-14.65-21.782-12.65-2.987-15.64-2.835-18.1.922-1.37 2.089-1.47 3.702-.65 10.735 1.18 10.178.01 12.932-6.59 15.453-4.12 1.571-4.46 1.571-5.34 0-.98-1.758-5.41-2.238-7.63-.827-.71.451-1.64 2.102-2.06 3.669-.97 3.657-5.83 5.631-7.67 3.118-2.47-3.372-10.48-.502-10.48 3.752 0 .859-2.96 2.32-7.75 3.821l-7.75 2.43-1.25-2.82c-1.43-3.209-2.84-3.499-6.05-1.246-1.52 1.064-2.16 2.405-1.97 4.136.25 2.341-.32 2.764-6.66 4.919-6.36 2.165-7.07 2.228-8.68.766-1.94-1.751-4.32-.975-3.51 1.142.36.931-1.91 2.142-7.51 4.006l-8.02 2.671-1.93-2.074c-2.39-2.564-4.7-1.824-5.11 1.636-.28 2.328-1.06 2.797-7.31 4.386-6.34 1.611-7.11 1.631-8.18.207-1.3-1.718-3.32-1.049-3.32 1.099 0 1.942-17.47 5.886-20.02 4.52-1.44-.771-2.31-.57-3.68.854-1.02 1.056-6.7 3.169-13.13 4.882-9.15 2.441-11.43 2.757-11.86 1.647-.29-.754-1.43-1.372-2.53-1.372-1.5 0-1.88.495-1.5 1.943.45 1.721-.56 2.186-8.88 4.08-5.64 1.285-10.59 1.875-12.39 1.478-1.74-.38-3.01-.248-3.01.313 0 1.257-2.05 2.014-9.92 3.665-5.64 1.185-6.7 1.159-8.8-.216-2.23-1.461-2.42-1.433-2.91.427-.4 1.551-1.93 2.253-6.91 3.169-3.51.647-8.19.887-10.4.534-3.1-.495-4.16-.293-4.61.872-.39 1.027-2.74 1.76-7.26 2.271-8.01.905-7.83.881-21.69 2.892-6.05.878-15.78 1.704-21.63 1.834-9.14.205-10.92-.021-12.69-1.61-2.2-1.98-4.66-1.361-3.78.949.42 1.09-.63 1.399-4.73 1.399-2.9 0-5.75-.485-6.35-1.077-.76-.769-2.179-.746-4.946.083-2.13.637-5.448 1.01-7.373.827-2.976-.283-3.547-.745-3.816-3.083-.395-3.427-1.65-3.481-4.482-.193-2.101 2.44-2.385 2.498-6.189 1.25-2.622-.86-4.437-2.248-5.304-4.057-1.402-2.925-4.209-3.759-4.209-1.25 0 1.806-2.116 1.882-9.174.326-6.834-1.506-7.826-2.33-7.826-6.494 0-2.301-.805-4.227-2.455-5.877-2.159-2.16-3.335-2.455-9.777-2.455-7.999 0-11.211 1.405-12.806 5.601-.817 2.149-1.514 2.399-6.687 2.403-3.176.002-9.825.684-14.775 1.516-4.95.832-18.9 2.008-31 2.613-18.8.94-25.124.85-43.48-.618-11.813-.944-27.113-2.543-34-3.552l-33.263-4.874c-32.209-4.72-49.201-9.24-84.537-22.486-6.754-2.532-12.829-4.604-13.5-4.605-1.987-.003-25.366-9.377-36.97-14.823l-10.75-5.045v-6.596c0-6.555-1.948-13.246-4.289-14.734-.666-.422-2.388-.775-3.826-.784-1.438-.008-3.759-.916-5.158-2.016-1.398-1.1-3.328-2-4.287-2-2.749 0-13.44 11.53-13.44 14.495 0 1.59-.563 2.505-1.54 2.505-2.689 0-8.734 3.616-16.132 9.65-8.608 7.02-18.368 12.454-19.041 10.6-.742-2.043-3.287-1.42-3.287.805 0 1.52-1.38 2.666-5.304 4.401-8.418 3.723-39.474 10.95-42.335 9.852-.859-.33-1.855-.132-2.212.44-.925 1.481-31.755 7.512-34.29 6.707-1.265-.401-2.416-.171-2.878.576-.542.877-27.061 6.887-30.731 6.964-.137.003-.25-1.383-.25-3.078 0-3.858-2.105-3.453-3.46.665-.528 1.605-1.018 3.033-1.088 3.173-.494.98-38.462 7.753-40.026 7.14-6.359-2.491-26.964.552-30.989 4.577-3.367 3.368-4.879 3.697-18.437 4.018-12.817.304-24.576 1.921-26.691 3.671-1.871 1.549-31.656 2.889-69.309 3.117-37.147.226-42.663-.238-81-6.813-14.959-2.566-14.575-2.395-19-8.446-1.639-2.241-9.603-4.818-17.568-5.685-4.345-.473-5.458-.215-7.802 1.807-3.196 2.757-4.573 7.754-4.606 16.724l-.024 6.365-5.75-.731c-8.846-1.125-32.589-1.21-44.012-.157-9.206.849-10.462.765-12.206-.813-1.63-1.475-3.124-1.663-9.238-1.16-4.012.33-13.022.892-20.023 1.248l-12.73.647-.473 3.118c-1.467 9.675-1.579 15.364-.324 16.406 2.073 1.72 15.54 4.451 19.583 3.972 7.928-.94 19.676-4.824 21.806-7.211l2.133-2.389 11.681 2.952c6.425 1.624 19.865 4.755 29.867 6.959 10.002 2.204 18.935 4.232 19.85 4.508 1.934.582 2.782 8.699 3.126 29.921l.21 13 4 .095c2.2.052 5.008.419 6.241.815 1.233.395 2.766.395 3.407-.002 1.925-1.189 14.28-1.333 14.996-.174.36.581 1.375.781 2.255.443 1.996-.766 2.135-10.195.478-32.463-.626-8.407-.947-15.478-.712-15.712.234-.234 4.68.431 9.88 1.478 5.2 1.048 16.655 2.408 25.455 3.023 8.8.615 22.236 1.766 29.857 2.558 20.157 2.093 41.765 1.793 70.807-.984 24.696-2.361 38.074-3.438 69.836-5.622 16.227-1.115 56.733-7.502 68.163-10.747 6.527-1.853 6.697-1.853 8.277-.007 1.861 2.173 3.953 1.411 3.273-1.192-.393-1.502 1.891-2.456 15.292-6.387 8.664-2.542 16.227-4.622 16.807-4.622.579 0 1.339.9 1.688 2 1.001 3.152 3.5 2.466 3.5-.961 0-3.372-.476-3.186 20.497-8.01 9.897-2.276 12.143-2.521 12.803-1.395 1.197 2.046 3.7 1.645 3.7-.592 0-1.552 1.398-2.373 6.75-3.963 9.203-2.735 39.419-10.284 39.602-9.894 2.478 5.269 5.272 5.944 4.911 1.187-.203-2.68.154-3.212 2.5-3.717 8.899-1.919 26.194-5.508 28.825-5.983l3.087-.557.642 51.065c.452 35.968.98 51.473 1.785 52.443 1.548 1.865 6.391 1.741 8.346-.214 1.001-1.001 3.159-1.548 5.821-1.476 2.327.062 8.281.216 13.231.34l9 .227.5-4.5c.648-5.835-.561-19.325-3.138-35-1.131-6.875-2.424-19.475-2.874-28-.45-8.525-1.145-19.202-1.545-23.726l-.727-8.226 10.595 3.726c9.618 3.382 10.546 3.926 10.054 5.894-.708 2.84 1.392 3.88 9.635 4.773 3.575.387 9.596 1.352 13.381 2.145 4.753.996 7.264 1.124 8.119.414.863-.716 8.61.166 25.619 2.917 27.181 4.397 49.769 7.237 75.881 9.542 33.014 2.914 46.555 3.521 78.758 3.531 31.353.01 32.226.063 31.082 1.895-1.704 2.728.407 7.166 5.749 12.09 6.219 5.733 9.198 5.351 14.261-1.831 1.604-2.275 2.182-4.175 1.82-5.988-1.395-7.007-1.756-6.55 5.83-7.408 3.85-.436 8.55-1.221 10.444-1.743 1.894-.523 3.555-.839 3.691-.703.136.136.432 15.877.657 34.979.375 31.728.566 34.905 2.214 36.726 2.361 2.608 7.095 2.604 8.726-.007 1.6-2.562 5.206-2.562 7.768 0 2.828 2.828 6.433 2.529 9.046-.75 2.103-2.64 2.166-3.35 1.585-17.75-.333-8.25-1.27-18.15-2.082-22-.811-3.85-1.492-10.6-1.513-15l-.037-8 26.25.344c27.62.362 47.43-.648 74.75-3.811 9.08-1.05 23.93-2.414 33-3.03 23.21-1.576 35.42-3.306 67.07-9.499 15.23-2.979 31.68-5.903 36.56-6.497 15.81-1.923 25.98-3.965 52.15-10.476 30.91-7.688 38.62-10.053 56.22-17.258 7.43-3.038 14.63-5.872 16-6.297 1.38-.425 6.02-2.397 10.32-4.381l7.82-3.609.04 38.757c.01 21.316.07 41.907.12 45.757.04 3.85-.12 14.29-.36 23.199-.33 12.325-.13 16.506.84 17.483 1.14 1.139 13.95 1.667 24.22.998 1.38-.09 3.63-.054 5 .079l2.5.241-.27-36c-.14-19.8-.52-44.031-.83-53.848l-.56-17.847 3.33.72c1.83.397 11.43 3.325 21.33 6.508 19 6.107 31.33 8.891 61.5 13.884 25.38 4.2 87.36 11.924 105 13.087 22.11 1.456 63.33 1.214 81-.476 19.07-1.825 44.34-3.436 44.96-2.867.25.232.77 11.091 1.14 24.13.38 13.04 1.02 30.154 1.44 38.03.72 13.757.85 14.386 3.23 15.947 2.3 1.505 2.7 1.5 5.44-.071 3.27-1.878 11.3-2.296 12.33-.642.66 1.067 8.49.661 10.44-.541 1.77-1.092 1.12-17.496-1.57-40.188l-2.6-21.826 11-10.5c10.56-10.082 11.43-10.675 21.85-14.887 9.74-3.942 11.53-5.077 17.59-11.184l6.74-6.797 8.48 4.184c4.66 2.301 8.49 4.747 8.5 5.434.05 1.864 6.94 1.556 16.89-.753 14.04-3.255 16.01-3.951 19.41-6.824 7.83-6.624 19.16-14.414 22.89-15.728 2.23-.787 5.13-1.16 6.45-.829 1.44.363 2.39.162 2.39-.508 0-.613 1.68-1.109 3.75-1.11 2.82-.002 5.43 1.143 10.48 4.592 10.21 6.972 16.24 7.204 23.76.917 2.31-1.929 5.21-3.507 6.43-3.507 3.08 0 11.21-5.562 13.3-9.093.94-1.599 2.29-2.907 3-2.907.7 0 1.28-.45 1.28-1 0-.589 3.54-1 8.61-1h8.61l-.6 3.75c-.33 2.063-1.04 18.6-1.58 36.75-.88 29.852-1.62 41.684-5.01 79.828-.58 6.505-.81 12.216-.52 12.69.3.474 1.91.384 3.59-.202 2.21-.77 3.36-.753 4.18.06 1.42 1.419 5.39 1.464 6.26.07.43-.698 1.49-.505 3.13.57 1.6 1.049 4.16 1.535 7.23 1.373 3.17-.169 5.54.306 7.15 1.429 3.07 2.153 3.69 2.119 7.39-.414l3.06-2.099-.29-41.652-.29-41.653 11.18-5.776c10.3-5.318 11.32-5.651 12.93-4.202 1.18 1.075 2.65 1.366 4.6.917 5.96-1.366 16.46-5.469 20.45-7.99 3.96-2.495 4.12-2.798 3.54-6.453-.7-4.36-.59-4.454 13.38-11.774 62.55-32.764 60.17-31.379 68.71-40.099l7.23-7.377 4.47 1.128c2.7.68 13.98 1.127 28.42 1.127 19.81 0 25.58-.337 33.4-1.945 19.15-3.94 50.73-12.148 66.91-17.387l16.64-5.39 1.11 8.678c.61 4.773 1.11 19.95 1.11 33.725v25.046l-4.64.636c-7.67 1.052-8.36.899-8.36-1.864 0-1.529.57-2.5 1.47-2.5.8 0 1.93-.87 2.5-1.934 1.45-2.716 1.35-32.48-.12-35.33-.64-1.23-1.48-2.91-1.86-3.736-.53-1.117-2.44-1.5-7.52-1.5-9.64 0-10.3 1.28-10.4 20.126-.08 17.055.43 20.19 3.57 21.621 1.48.673 2.36 1.929 2.36 3.366 0 2.113-.49 2.315-6.25 2.589-6.21.296-6.25.316-6.25 3.298v3h36l.31 5.873c.16 3.23-.4 15.894-1.25 28.141-.87 12.334-1.56 35.287-1.56 51.445v29.176l2.25-.713c1.23-.392 5.39-.631 9.25-.531 11.79.306 12.9.277 16.18-.422 1.75-.372 3.44-1.323 3.74-2.113.3-.79.85-24.324 1.23-52.298l.67-50.861 5.8-1.14c3.19-.627 11.1-1.788 17.59-2.581 6.48-.792 14.72-1.889 18.29-2.438 3.58-.549 12.13-1.005 19-1.014 10.77-.013 13.47.327 19.5 2.459 3.99 1.412 9.27 2.484 12.28 2.496 4.69.019 5.38.295 6.22 2.521 1.16 3.058 2.99 3.242 3.74.375.51-1.949 1.02-2.071 6.16-1.485 3.08.352 11.98.925 19.77 1.274 12.65.567 14.23.835 14.66 2.486.63 2.404 3.72 2.394 4.35-.015.44-1.711 2.11-1.92 20.15-2.53 10.82-.366 21.81-.922 24.42-1.236 4.34-.521 4.75-.389 4.75 1.53 0 2.664 3 2.812 3.69.183.53-2.036-.82-1.846 25.64-3.61 8.32-.555 8.86-.471 9.37 1.469.8 3.063 4.3 2.704 4.3-.441 0-1.375.29-2.5.64-2.5.35 0 8.12-1.395 17.25-3.099 9.14-1.705 17.74-3.104 19.11-3.11 1.38-.006 3.03-.435 3.67-.953.64-.518 6.94-1.375 14-1.905 7.06-.529 13.69-1.157 14.73-1.394 1.83-.414 1.88.152 1.25 13.765-.71 15.422-3.41 39.934-6.58 59.696-2.74 17.096-4.36 31.241-4.47 39l-.1 6.5 6.5.76c9.32 1.089 26.08.2 27.18-1.442.49-.725.59-2.893.24-4.818-.89-4.813-1.47-104.859-.61-105.352.38-.217 3.62-.035 7.19.405 3.58.441 12.78 1.3 20.44 1.91 7.67.61 14.57 1.627 15.33 2.259 1.86 1.545 33.81 2.737 37.41 1.395 1.84-.69 12.38-.428 34.14.849 43.33 2.542 70.75 1.365 96.68-4.152 4.13-.877 8.97-1.518 10.77-1.422 1.79.095 10.33-1.642 18.97-3.86 8.64-2.217 16.72-4.032 17.95-4.032 1.23 0 3.26-1.072 4.52-2.382 1.26-1.31 4.77-3.174 7.79-4.143 5.2-1.666 14.5-5.268 40.99-15.871 6.31-2.529 13.96-5.316 17-6.194 5.63-1.631 25.93-10.328 36.26-15.538l5.75-2.9v73.028h-2.28c-1.26 0-4.97-.952-8.25-2.115-3.28-1.163-8.19-2.175-10.91-2.25-4.4-.12-5.1.162-6.5 2.606-1.16 2.045-1.29 3.174-.49 4.443 1.43 2.264 15.02 6.457 19.43 5.995 1.93-.202 4.74.057 6.25.575 3.25 1.112 3.19.237 1.76 24.246-2.75 46.237-3.04 57.81-1.46 60.209 1.87 2.858 5.87 2.991 9.91.33 2.91-1.919 3-1.919 6.03-.044 2.47 1.526 4.22 1.788 8.77 1.318 8.9-.918 9.36-1.874 7.9-16.094-1.31-12.73-2.83-44.082-3.67-75.719-.29-11-.73-23.846-.98-28.548l-.46-8.547 23.23 3.731c12.77 2.052 29.75 4.695 37.72 5.873 7.98 1.177 18.78 2.791 24 3.586 5.23.795 14.3 2.066 20.17 2.823 14.74 1.903 24.69 4.569 25.4 6.804.34 1.066 1.55 1.778 3.01 1.778 1.35 0 4.81 1.3 7.69 2.889 2.91 1.605 7.65 3.187 10.67 3.559 2.99.369 11.54 2.277 19 4.239 7.46 1.962 19.19 4.826 26.06 6.363 6.88 1.538 18.35 4.562 25.5 6.721l13 3.924.32 3.403c.18 1.871.74 3.829 1.25 4.352 1.46 1.491 1.11 7.544-.47 8.15-.77.295-3.58.849-6.24 1.229-3.33.477-4.93 1.205-5.15 2.34-.49 2.536 4.44 3.203 22.04 2.983l15.75-.197v19.119c0 14.581-.38 20.427-1.6 24.633-2.3 7.917-1.82 8.209 14.53 8.765 7.33.25 13.57.696 13.87.991.29.295 1.13.537 1.87.537 1.6 0 1.73-5.645.4-18-.5-4.675-1.06-21.474-1.24-37.331l-.33-28.832 10.38-4.38c15.13-6.384 26.44-10.001 26.91-8.606.62 1.887 3.21 1.3 3.21-.73 0-2.113-.47-1.896 20.5-9.49 8.25-2.987 15.68-5.708 16.51-6.045.97-.396 1.86.19 2.5 1.65 1.51 3.439 4.05 2.926 3.71-.748-.32-3.371-1.93-2.624 26.78-12.43 16.79-5.736 16-5.554 16-3.675 0 .89.68 1.617 1.5 1.617 1.42 0 1.91-1.094 1.6-3.631-.07-.622 3.59-2.613 8.14-4.425 4.54-1.811 14.22-5.887 21.51-9.057 11.79-5.13 13.25-5.55 13.25-3.825 0 2.979 2.97 2.315 3.64-.811.48-2.302 2.15-3.522 10.22-7.47 5.3-2.597 13.47-6.924 18.14-9.617 4.68-2.692 8.61-4.62 8.73-4.28.13.34-.1 7.367-.5 15.617l-.73 14.999-13.5.547c-14.65.593-18.26 1.357-17.8 3.767.44 2.282 8.92 4.144 18.97 4.167 4.77.01 9.38.292 10.25.626 1.31.504 1.58 2.528 1.58 11.939v11.331l-12.43-.587c-13.14-.621-21.22.634-22.31 3.466-.8 2.096 1.71 3.367 5.74 2.9 4.15-.481 19.92 1.043 25.25 2.439l3.75.982V166.5c0 14.956.18 16.638 1.94 18.4 1.82 1.818 1.88 2.713 1.01 14.25-.51 6.771-1.05 20.33-1.19 30.131-.24 16.816-.15 17.904 1.74 19.318 2.22 1.663 11.33 1.088 15-.949 1.1-.61 2.66-.973 3.46-.807 2.03.419 9.18-1.934 11.29-3.715 2.04-1.723 2.28-10.178.75-26.667-.51-5.5-1.42-29.8-2.02-54-.6-24.2-1.42-49.062-1.81-55.25-.39-6.188-.48-11.245-.19-11.239.29.007 2.71.674 5.38 1.484 2.67.81 12.12 3.072 21 5.027 20.62 4.541 19.31 4.049 20 7.508.55 2.764 2.64 4.276 2.64 1.911 0-.582.52-.739 1.15-.347.64.391 1.7-.035 2.37-.947 1.11-1.524 2.41-1.369 16.07 1.924 21.06 5.077 67.06 12.555 86.41 14.046 8.04.62 25.8 3.471 49.81 7.997 21.54 4.06 36.55 6.434 44.19 6.986 25.48 1.842 56.64 6.388 82.36 12.017 8.88 1.943 17.49 3.697 19.14 3.898 1.65.202 16.73 2.873 33.5 5.936 16.78 3.064 40.63 6.681 53 8.039 34.43 3.777 39.9 4.561 48 6.873l7.5 2.141-.1 4.498c-.34 15.731-2.34 53.779-2.89 55.17-.36.919-.19 2.564.4 3.654 1.33 2.484 5.75 3.116 25.34 3.618 14.45.371 14.78.332 16.57-1.945 2.1-2.659 2.13-1.13-.77-34.878-1.13-13.133-2.05-25.603-2.05-27.711v-3.832l8.74-.289c7.37-.244 8.79-.561 9.07-2.028.2-1.053-.58-2.16-1.99-2.807-2.27-1.046-2.32-1.384-2.49-16.921-.09-9.445-.61-16.699-1.28-17.944-.94-1.752-2.06-2.089-6.96-2.089h-5.83l-.49-7.75c-.75-11.942-1.31-12.633-12.13-15.086-5.02-1.141-11.89-2.306-15.26-2.59l-6.13-.517-.68 8.779c-.38 4.828-.69 13.817-.69 19.975 0 10.993-.04 11.189-2.19 10.741-6.11-1.272-35.46-6.656-44.44-8.151-8.83-1.471-10.25-1.971-10.25-3.62 0-2.416-1.77-5.781-3.03-5.781-.53 0-.97 1.611-.97 3.579 0 3.364-.16 3.549-2.75 3.065-1.51-.284-5-.79-7.75-1.126-2.75-.336-11.52-1.909-19.5-3.496-18.64-3.707-49.85-9.058-52.72-9.038-1.53.011-2.04-.433-1.66-1.436.91-2.373-.55-3.849-2.34-2.363-.88.733-3.95 1.248-7.16 1.203-7.48-.105-34.51-6.135-52.84-11.787-8.13-2.506-20.25-6.044-26.94-7.864-11.01-2.997-12.06-3.479-11.14-5.118.7-1.251.67-2.153-.09-2.915-1.68-1.67-1.33-2.704.89-2.704 1.1 0 2-.45 2-1s-1.07-1-2.38-1c-1.96 0-5.47 3.344-8.09 7.722-.08.121-7.76-1.792-17.08-4.252-9.32-2.46-29.1-7.495-43.95-11.19-14.85-3.695-27.72-7.407-28.61-8.25-.89-.84-2.14-2.543-2.79-3.78-1.53-2.953-2.92-2.846-4.12.317-.69 1.816-1.49 2.404-2.73 2.011-13.07-4.145-32.54-9.486-53.57-14.687-25.12-6.211-25.8-6.448-25.37-8.716.61-3.186-2.13-4.111-4.29-1.45l-1.66 2.06-18.43-4.398c-22.4-5.343-36.4-9.276-38.5-10.819-1.01-.732-1.78-3.364-2.13-7.219l-.55-6.066 10.38 1.916c5.7 1.055 16 2.07 22.87 2.259 6.88.188 13.4.601 14.5.92 2.62.757 7.4-4.883 5.63-6.645-.62-.623-1.13-2.563-1.13-4.31 0-1.748-.69-3.748-1.53-4.447-2.35-1.952-6.25.23-6.65 3.72-.3 2.623-.65 2.823-5.49 3.104-2.84.165-6.67-.087-8.5-.558-2.93-.753-3.37-1.302-3.64-4.545-.25-2.948-.8-3.812-2.75-4.3-4.01-1.008-5.49.106-4.79 3.614l.62 3.088-6.88-.3-6.89-.299-.3-3.114c-.29-2.912-3.17-5.386-6.28-5.386-.54 0-2.36-1.575-4.05-3.5-2.61-2.964-3.71-3.494-7.22-3.46-2.28.022-5.33.683-6.78 1.468Zm53.49 47.126c18.25 4.398 23.51 6.03 24.88 7.722 1.3 1.589 1.96 1.823 2.56.906.94-1.45 43.63 8.73 68.7 16.386 8.25 2.519 30.75 8.553 50 13.412 62.13 15.677 88.63 22.676 107 28.264 15.33 4.662 32.27 8.578 55 12.716 10.65 1.938 34.55 6.052 46.11 7.936 6.66 1.086 15.88 2.841 20.5 3.9 4.61 1.06 10.87 2.234 13.89 2.61 8.24 1.024 43.55 6.994 59.75 10.101l14.25 2.733v3.34c0 3.71.09 3.673-5.5 2.331-5.63-1.352-31.22-4.713-42.23-5.548-5.08-.384-9.04-1.001-8.81-1.369.22-.369-.02-1.324-.54-2.123-.81-1.23-1.18-1.158-2.42.472-1.4 1.834-2 1.865-12.74.669-9.22-1.028-64.19-9.709-73.91-11.672-1.59-.322-2.87-1.386-3.2-2.672-.54-2.057-.64-2.071-2.53-.361-1.88 1.71-3.22 1.532-35.79-4.761-18.6-3.596-35.63-6.802-37.83-7.124-16.07-2.354-21.5-3.775-21.5-5.627 0-1.032-.19-1.876-.42-1.876-.23 0-1.13-.273-2-.607-1.03-.398-1.58-.055-1.58 1 0 .907-.82 1.607-1.88 1.607-1.71 0-53.52-10.585-78.87-16.112-9.99-2.178-10.25-2.304-10.25-5.002 0-3.394-1.88-4.767-3.5-2.553-.66.9-1.53 1.306-1.93.904-.4-.403-1.26-.023-1.9.845-1.05 1.416-3.26 1.136-21.67-2.747-32.78-6.914-65.46-14.499-66-15.32-.27-.415-2.07-.978-4-1.25-1.92-.27-9.57-2.16-17-4.197-7.42-2.035-17.77-4.862-23-6.28-5.22-1.418-10.74-3.2-12.25-3.959l-2.75-1.38V38.99l5.11 2.014c2.81 1.108 15.52 4.525 28.25 7.592Zm-1324.36-1.752v5.883l-8.75 2.702c-4.81 1.486-13.47 4.221-19.25 6.08-12.53 4.03-37.66 10.365-55.12 13.898-10.04 2.032-15.37 2.537-26 2.468l-13.38-.088 6.41-2.163c3.77-1.273 6.85-2.984 7.5-4.162.6-1.1 1.18-2.166 1.29-2.37.12-.204 6.42-1.843 14-3.645 30.09-7.144 89.89-22.46 91.3-23.386.83-.54 1.61-1.008 1.75-1.04.14-.034.25 2.587.25 5.822Zm1252.12 6.617.28 6-4.45.5c-3.58.404-4.45.883-4.45 2.465 0 1.505-1.82 2.727-7.77 5.215-4.26 1.787-7.97 3.278-8.23 3.313-.77.102-2.97.955-24.99 9.707-11.55 4.588-21.15 7.882-21.33 7.322-.6-1.79-3.21-1.098-4.01 1.06-.58 1.554-5.94 4.213-21.19 10.5-11.23 4.63-21.18 8.418-22.11 8.418-.94 0-1.85.38-2.04.844-.18.465-5.05 2.69-10.83 4.945-5.77 2.256-14.77 5.894-19.98 8.086-6.78 2.849-9.69 3.65-10.21 2.81-.53-.847-1.09-.71-2.02.487-2.01 2.596-39.07 16.977-40 15.521-.42-.656-.76-3.511-.77-6.345-.02-4.885.14-5.209 3.13-6.25 1.73-.604 3.94-1.098 4.91-1.098.97 0 7.02-2.25 13.44-5s11.86-5 12.09-5c.23 0 .41.675.41 1.5s.68 1.5 1.5 1.5c.88 0 1.51-.929 1.53-2.25.02-1.897 1.47-2.829 9.25-5.937 5.07-2.027 14.6-6.038 21.17-8.913 7.73-3.382 12.08-4.816 12.33-4.064.62 1.853 3.22 1.347 3.22-.626 0-1.405 4.56-3.562 21.18-10.02 14.41-5.599 21.51-7.904 22.2-7.21 1.89 1.888 4.77 1.203 4.43-1.056-.27-1.838 2.37-3.156 23.19-11.54 29.78-11.992 26.99-10.841 37.5-15.462 4.95-2.175 9.66-4.373 10.47-4.884.81-.51 1.56-.84 1.67-.733.11.108.32 2.895.48 6.196Zm-516.8 10.123c-5.43 4.435-15.99 9.287-36.69 16.844-17.16 6.264-25.62 8.674-47.5 13.53-14.65 3.25-33.6 7.074-42.13 8.497-8.52 1.424-23.37 4.122-33 5.997-50.17 9.771-73.62 12.493-109.5 12.709-17.11.102-28.35-.401-59-2.644-7.08-.519-22.43-3.123-33.09-5.617l-9.1-2.126-.17-4.89-.17-4.89 4.26.493c13.79 1.591 24.44 2.474 29.83 2.474 3.65 0 7.56.674 9.63 1.658 2.73 1.295 3.67 1.385 4.27.41.61-.988 4.45-1.021 18.44-.158 29.09 1.795 68.75 1.045 103.1-1.949 14.5-1.265 73.13-10.928 90.5-14.92 19.75-4.534 63.3-16.678 77-21.47 17.35-6.063 33.14-12.303 34.42-13.601.78-.782 1.17.102 1.4 3.13.27 3.614-.09 4.553-2.5 6.523Zm47.58 10.621c8.6 4.526 29.13 15.892 51.6 28.564 4.4 2.481 14.53 8.634 22.5 13.672 7.98 5.039 17.53 10.904 21.23 13.034 3.69 2.129 6.62 3.95 6.5 4.046-.13.096-4.05-.428-8.73-1.164-12.88-2.028-37.51-5.476-46.5-6.508-6.98-.802-57.24-8.938-64.75-10.481l-2.75-.566V62.77l5.65 3.191c3.11 1.755 9.98 5.466 15.25 8.245Zm482.88-4.743c.31 3.373 1.19 2.764-20.28 14.048-10.5 5.521-39.82 18.637-56.69 25.367-3.13 1.249-6.21 1.957-6.83 1.573-.62-.384-2.11.215-3.3 1.331-1.2 1.116-8.7 4.378-16.68 7.248-21.02 7.567-25.81 8.941-26.39 7.576-.31-.735-1.03-.466-2.01.752-2.03 2.518-40.85 16.705-41.78 15.267-.43-.664-1.36-.277-2.5 1.041-1 1.154-4.97 3.108-8.82 4.344-3.85 1.235-12.06 4.383-18.26 6.996-12.64 5.336-11.87 5.554-12.47-3.544-.27-3.999-.27-4.001 6.23-7.206 10.66-5.258 30.3-12.296 32.61-11.688 1.51.397 2.26.022 2.61-1.316.3-1.148 2.19-2.412 4.88-3.267 2.42-.768 10.9-4.019 18.83-7.225 14.45-5.834 16.01-6.033 16.06-2.048 0 .688.69 1.25 1.51 1.25.99 0 1.5-.986 1.5-2.878 0-1.582.56-3.331 1.25-3.885.69-.554 10.21-4.68 21.16-9.168 13.85-5.678 20.22-7.843 20.95-7.115 1.7 1.703 3.48 1.2 3.82-1.08.27-1.766 3.96-3.573 21.72-10.617 18.68-7.413 21.51-8.285 22.3-6.873 1.31 2.356 2.48 1.987 3.58-1.133.78-2.216 2.4-3.297 8.34-5.559 4.06-1.544 8.37-3.344 9.58-4 1.21-.654 5.93-1.192 10.5-1.192h8.3l.28 3Zm-527.78 1.25c-.01 3.177-.51 4.034-3.25 5.608-6.33 3.626-33.37 15.374-41.25 17.923-4.4 1.422-13.63 4.879-20.5 7.679-34.43 14.027-41.04 16.227-49.7 16.532-4.51.159-10.58.978-13.5 1.822-7.37 2.132-18.67 4.848-22.56 5.424-2.33.345-3.42 1.123-3.83 2.75-.48 1.942-1.74 2.498-8.74 3.869-21.12 4.136-31.94 4.851-65.67 4.339-17.87-.272-39.7-.963-48.5-1.536-8.8-.573-27.25-1.555-41-2.181-24.5-1.116-51.79-3.427-53.59-4.538-.5-.308-.91-3.233-.91-6.501 0-6.864.23-6.966 9.86-4.49 3.1.799 11.49 2.393 18.64 3.543 7.15 1.15 15.48 2.86 18.5 3.799 4.78 1.482 9.59 1.672 36.49 1.443 17.05-.145 39.56-.91 50.02-1.699 17.87-1.348 56.29-7.093 76.99-11.513 4.95-1.057 18.45-3.53 30-5.495 11.55-1.965 26.96-4.912 34.25-6.551 7.29-1.637 19.31-4.348 26.72-6.023 17.15-3.88 55.64-18.058 64.61-23.802 3.53-2.26 6.53-4.12 6.67-4.132.14-.011.25 1.668.25 3.73Zm559.74 2.093c1.85 2.2 2.55 2.46 4.05 1.52 1.44-.9 4.92-.322 16.77 2.784 8.22 2.154 17.98 4.822 21.69 5.928l6.75 2.01v5.04c0 3.585.36 4.922 1.25 4.63.69-.227 1.4-1.39 1.57-2.584.18-1.194.96-2.171 1.75-2.171s1.43-.675 1.43-1.5c0-.826.18-1.5.39-1.5.22 0 6.41 1.373 13.75 3.051 39.05 8.92 165.24 35.886 171.36 36.616 2.2.262 20.43 3.629 40.5 7.481 20.08 3.852 41.23 7.879 47 8.95 16.05 2.973 15 2.561 15 5.92 0 1.64-.31 2.981-.69 2.981-.38 0-10.62-2.006-22.75-4.458-20.38-4.119-37.68-6.629-66.28-9.621-9.49-.993-11.32-1.463-11.82-3.048-.72-2.285-1.79-2.378-3.52-.304-1.59 1.924-2.93 1.772-35.44-4.033-13.2-2.357-30.19-5.104-37.75-6.104-12.76-1.688-13.75-1.972-13.75-3.935 0-5.696-5.32-7.011-8.01-1.98-.73 1.365-2.04 2.483-2.91 2.483-2.83 0-41.86-5.883-53.09-8.003-6.02-1.136-19.17-4.099-29.22-6.584-10.05-2.486-26.14-6.268-35.77-8.404-9.62-2.138-19.52-4.495-21.99-5.24-4.39-1.32-4.51-1.47-5.15-6.31-.36-2.728-.87-7.984-1.14-11.68-.47-6.596-.44-6.703 1.65-5.656 1.17.585 3.14 2.26 4.37 3.72Zm-1461.47 14.95c-2.33 2.038-10.21 6.906-17.5 10.816-7.3 3.909-20.24 10.844-28.77 15.409a2505.05 2505.05 0 0 1-31 16.277c-8.52 4.386-20.45 10.784-26.5 14.218-12.43 7.053-23.57 12.772-23.97 12.301-.14-.173-.81-8.64-1.48-18.815-.67-10.175-1.45-20.375-1.73-22.667l-.51-4.166 3.35.756c4.39.99 47.44-1.35 62.54-3.399 18.45-2.502 32.25-6.871 51.19-16.212 9.14-4.502 17.06-8.195 17.61-8.206.55-.011-.9 1.649-3.23 3.688Zm-25.38 5.2c-13.44 6.94-40.06 12.372-65.89 13.445l-11.5.478 8-1.539c12.38-2.381 46.99-10.159 57-12.813 4.95-1.31 11.03-2.402 13.5-2.425l4.5-.043-5.61 2.897ZM585.37 110.942c.293 12.942.556 12.601-12.249 15.87-4.4 1.123-10.887 2.942-14.415 4.043-4.354 1.357-6.971 1.703-8.143 1.076-1.274-.682-2.084-.423-3.085.984-2.176 3.061-47.615 14.028-48.989 11.825-.381-.612-1.394-.252-2.554.908-2.028 2.028-24.045 7.413-31.735 7.762-2.243.102-5.204.707-6.579 1.344-2.364 1.095-27.052 7.07-31.448 7.611-1.129.138-2.727.541-3.552.895-1.899.814-30.749 7.08-42 9.123-12.037 2.185-73.895 10.384-87.291 11.57-16.268 1.44-56.598 1.209-75.709-.434-9.075-.78-27.375-1.73-40.666-2.112-13.292-.382-27.017-1.204-30.5-1.827l-6.334-1.132-.712-6.448c-.391-3.546-.616-6.541-.5-6.654.117-.114 9.212 1.29 20.212 3.12 40.846 6.794 55.601 7.506 112.937 5.451 26.185-.939 29.022-.885 29.834.565.784 1.4 2.558 1.515 14.063.909 13.612-.717 18.058-1.939 19.111-5.255.443-1.397 2.17-2.085 7.074-2.818 3.569-.533 7.049-.613 7.735-.178 4.076 2.588 23.603-.421 29.571-4.557 4.961-3.438 41.744-11.185 42.594-8.971.767 1.999 3.581 1.638 3.581-.46 0-1.547 2.334-2.25 15.989-4.822 15.387-2.898 16.012-2.941 16.586-1.133.805 2.536 4.011 1.841 3.649-.791-.251-1.831 1.14-2.28 15.914-5.134l16.189-3.128 1.675 2.068c1.953 2.412 4.373 1.508 3.482-1.301-.66-2.077-1.1-1.911 11.905-4.51 7.328-1.465 28.647-7.725 30.765-9.034.513-.317 1.569-.05 2.346.595 1.608 1.335 3.5.541 3.5-1.469 0-.742 3.263-3.155 7.25-5.36 3.987-2.206 10.175-6.519 13.75-9.586 6.044-5.185 13.162-9.585 15.5-9.582.591 0 1.102 4.492 1.249 10.977Zm1721.51 3.27c.29 6.738.24 12.537-.11 12.889-.36.351-5.49.839-11.4 1.085l-10.75.448v-25.567l5.25-.368c2.89-.202 7.78-.45 10.86-.552l5.62-.185.53 12.25Zm32.61-8.876c2.55 1.856 6.45 4.291 8.67 5.411 13.11 6.62 43.74 14.299 64.79 16.248 5.6.518 14.22 1.39 19.17 1.937 13.57 1.499 56.87 1.227 78.16-.492 10.36-.837 25.17-2.65 32.9-4.03 7.73-1.38 15.38-2.454 17-2.387 1.62.068 9.47-1.48 17.44-3.439 7.98-1.959 15.51-3.809 16.75-4.111 2.01-.49 2.25-.174 2.25 2.925 0 3.89-.07 3.917-13 5.026-7.49.642-20.56 2.657-40.5 6.242-18.26 3.283-27.35 4.223-56 5.788-6.6.361-16.05 1.065-21 1.565-13.78 1.391-34.23 1.211-34.79-.307-.37-1-.72-1-1.78 0-.76.715-3.92 1.252-7.38 1.255-7.03.006-31.34-1.973-33.55-2.731-.82-.283-4.87-.628-9-.766-9.37-.315-15.38-2.365-15.82-5.402l-.33-2.203-24.93.299-24.92.298-.01-8.5c-.01-4.675-.29-10.187-.63-12.25l-.62-3.75h11.25c11.19 0 11.27.017 15.88 3.374Zm8.63-1.984c2.75.751 11.62 3.437 19.72 5.97 14.64 4.58 44.5 10.637 52.45 10.639 5.31.001 7.35.793 6.66 2.584-.35.902-2.02 1.417-4.62 1.417-6.65 0-30.12-4.046-31.21-5.377-.56-.688-3.41-1.247-6.5-1.271-8.42-.068-32.44-8.444-41-14.295-1.95-1.336-1.48-1.301 4.5.333Zm-1020.5 5.669v5.058l-11.58 5.444c-6.38 2.994-12.79 5.744-14.25 6.11-1.47.366-5.07 1.728-8.01 3.025-11.05 4.882-29.41 10.618-52.16 16.299-33.28 8.309-34.8 8.631-52.02 10.988-8.51 1.166-25.6 4.11-37.98 6.543-26.64 5.239-46.34 8.508-50.5 8.384l-3-.09 3.2-.926c1.76-.509 3.48-1.369 3.81-1.91.34-.541 1.6-.988 2.8-.994 1.21-.005 4.66-1.158 7.68-2.562 5.67-2.641 8.9-2.945 19.83-1.866 7.5.739 11.32-.538 14.36-4.807 1.96-2.764 2.45-2.938 6.72-2.392 15.12 1.935 14.63 1.945 19.7-.421 3.17-1.476 6.38-2.194 9.07-2.03 5.52.337 12.33-2.76 15.89-7.227 2.38-2.983 3.14-3.381 4.78-2.504 3.41 1.826 12.13.462 16.02-2.507 2.27-1.731 4.75-2.674 7.04-2.674 4.4 0 13.52-3.344 16.37-6.002 1.48-1.378 3.53-1.998 6.61-1.998 3.14 0 6.34-.999 10.85-3.394 5.72-3.035 7.26-3.4 14.55-3.447 4.49-.03 9.14-.581 10.34-1.225 1.21-.644 4.74-1.266 7.85-1.382 7-.261 12.9-3.024 15.53-7.283 1.27-2.05 3.28-3.6 5.5-4.241 1.93-.555 4.85-1.91 6.5-3.012 1.65-1.101 3.34-2.006 3.75-2.009.41-.004.75 2.269.75 5.052Zm-18-3.618c0 .243-.45.719-1 1.059-.55.34-1 .141-1-.441s.45-1.059 1-1.059 1 .198 1 .441Zm1286.82 2.309c-.26 1.356-3.59 2.574-14.82 5.412-17.07 4.311-18 4.417-18 2.056 0-1.482 1.81-2.1 10.75-3.67 5.91-1.038 13-2.678 15.75-3.645 6.39-2.246 6.71-2.254 6.32-.153Zm-1303.32 3.25c-.34.55-1.38.993-2.31.985-1.45-.014-1.48-.15-.19-.985 1.96-1.266 3.28-1.266 2.5 0Zm-672.657 2.42c4.551 2.306 4.755 2.588 4.356 6.014-.52 4.447.944 6.314 5.639 7.195 2 .375 5.893 1.733 8.65 3.017 6.812 3.172 10.28 3.097 11.553-.251 1.079-2.838 2.628-2.814 9.722.15 2.946 1.231 3.332 1.805 3.055 4.547l-.317 3.137 10.5 3.461c10.139 3.341 10.606 3.404 13.584 1.817 2.893-1.541 3.435-1.524 8.767.276 3.126 1.055 5.904 2.139 6.173 2.408.27.269-4.52 2.869-10.643 5.776-10.429 4.953-11.487 5.25-16.735 4.709-3.081-.318-6.062-1.202-6.624-1.964-.562-.763-3.6-1.687-6.751-2.055-3.151-.369-8.201-1.594-11.221-2.724-7.903-2.957-10.282-3.235-11.349-1.327-.812 1.451-1.973 1.234-10.805-2.017-5.443-2.004-10.503-4.023-11.245-4.486-.989-.618-1.496-4.755-1.897-15.473-.301-8.047-.242-14.63.132-14.63s2.829 1.089 5.456 2.42Zm687.157-.871c0 .991-8.44 4.407-10.95 4.429-3.47.031-1.45-1.674 4.01-3.387 4.97-1.559 6.94-1.855 6.94-1.042Zm1253.29 3.451c-.39 1.49-1.36 2-3.82 2-1.81 0-10.38 1.356-19.04 3.013-8.65 1.657-15.98 2.771-16.27 2.476-1.49-1.49 3.4-3.386 12.84-4.976 5.78-.973 13.43-2.336 17-3.029 9.45-1.832 9.9-1.807 9.29.516Zm-673 2.5c-2.38 2.989-3.37 3.489-6.79 3.424-4.92-.094-11.69-2.43-9.5-3.28 1.54-.598 15.48-3.378 17.79-3.549.73-.054.08 1.426-1.5 3.405Zm11.21-.892c-3.47 2.682-7.5 4.509-7.5 3.403 0-1.298 5.97-5.013 8-4.975 1.13.021 1 .412-.5 1.572Zm1799.5 1.27c0 .482-.67 1.437-1.5 2.122-1.63 1.351-1.83 1.028-.89-1.418.64-1.675 2.39-2.19 2.39-.704Zm-1835.5 3.122c.34.55 1.59 1 2.78 1 1.18 0 3.97.644 6.19 1.431s5.33 1.711 6.93 2.055c4.37.943 1.66 2.847-3.94 2.762-3.56-.054-5.86-.894-10.04-3.669-2.98-1.98-5.42-3.82-5.42-4.089 0-.915 2.88-.495 3.5.51Zm375.5 1.5c0 1.833-.53 2.5-2 2.5s-2-.667-2-2.5.53-2.5 2-2.5 2 .667 2 2.5Zm211.5-1.009c7.7.818 17.71 1.492 22.25 1.498 4.83.007 8.25.426 8.25 1.011 0 1.097-40.83 1.419-47.16.372-2.43-.401-3.83-1.242-4.16-2.489-.62-2.382 1.68-2.426 20.82-.392Zm67.82-.107c.66 1.735-2.76 2.318-18.92 3.222-8.65.484-12.31.351-12.81-.464-.5-.803 1.02-1.167 5.1-1.228 4.49-.066 21.3-1.9 25.45-2.778.36-.075.89.487 1.18 1.248ZM585.621 133.402v5.323l-9.75 1.741c-9.38 1.676-58.447 13.761-68.75 16.934-6.268 1.93-7.5 1.94-7.5.061 0-2.333-1.922-1.766-3.149.928-.908 1.994-2.47 2.724-8.729 4.085-12.658 2.75-24.361 5.878-51.647 13.801-38.825 11.273-63.38 15.631-102.475 18.185-12.925.845-33.4 2.448-45.5 3.562-50.248 4.627-55.608 4.794-79.11 2.461-8.189-.813-23.44-2.148-33.89-2.967s-22.713-2.243-27.25-3.164l-8.25-1.676v-5.464c0-4.463.277-5.359 1.51-4.886 4.157 1.596 16.718 2.644 43.968 3.67 16.488.621 30.252 1.298 30.588 1.506.336.207 10.554.879 22.707 1.492 22.421 1.132 53.792.217 69.037-2.012 3.68-.538 21.98-3.031 40.668-5.541 19.984-2.683 41.401-6.216 52-8.578 9.912-2.208 19.372-4.048 21.022-4.09 1.65-.041 3.473-.447 4.052-.901.578-.455 7.959-2.449 16.401-4.432 15.683-3.685 16.983-3.664 17.032.271.008.688.69 1.25 1.515 1.25.998 0 1.5-.998 1.5-2.981 0-2.278.531-3.098 2.25-3.477 29.634-6.535 32.75-7.092 32.75-5.851 0 2.099 3.135 1.507 3.713-.702.306-1.168 1.628-2.222 3.156-2.514 1.447-.276 11.561-2.673 22.475-5.326 15.585-3.788 19.954-4.536 20.357-3.486.792 2.065 2.943 1.588 4.966-1.099 1.409-1.874 5.068-3.397 15.833-6.593 7.7-2.285 14.665-4.527 15.479-4.981 2.389-1.334 3.021-.194 3.021 5.451Zm1241.999-5.973c0 1.27-11.43 8.748-11.77 7.706-.71-2.104-10.4-1.252-21.73 1.908-6.05 1.688-11.71 3.71-12.58 4.493-2.16 1.952-3.78 1.757-8.25-.995l-3.84-2.357 12.84-3.073c7.06-1.69 18.01-3.786 24.33-4.659 6.33-.873 13.08-1.969 15-2.436 4.26-1.036 6-1.205 6-.587Zm-427.77 3.617c5.89.531 19.28 2.515 29.74 4.41 18.87 3.416 55.55 8.284 80.53 10.686 8.2.788 30 1.259 59 1.275 43.38.024 47.45-.131 71.47-2.715 14.02-1.508 27.4-2.741 29.75-2.741 4.04 0 4.28.16 4.28 2.853 0 2.833-.05 2.858-7.65 3.5-4.21.356-11.01.647-15.11.647s-17.64.714-30.1 1.587c-16.96 1.188-32.55 1.481-62.14 1.165-35.19-.376-41.68-.706-59.5-3.021-11-1.429-28.1-3.315-38-4.191-9.9-.877-26.1-3.15-36-5.051-9.9-1.902-25.87-4.834-35.5-6.515-9.62-1.682-17.95-3.234-18.5-3.45-1.34-.524 14.4.362 27.73 1.561Zm-3.23 7.468c14.03 2.534 31.35 5.658 38.5 6.941 7.15 1.283 21.78 3.079 32.5 3.991 10.73.912 25.8 2.541 33.5 3.62 21.72 3.043 70.61 4.558 98.5 3.052 12.38-.669 34.19-1.851 48.48-2.628 14.28-.777 26.17-1.214 26.41-.97.25.244.65 2.875.9 5.846l.44 5.403-7.36.572c-10.64.828-39.72 2.82-51.37 3.519-5.5.331-25.52.317-44.5-.029-33.87-.619-35.22-.723-74.18-5.751-64.11-8.271-84.58-12.109-115.82-21.71a9413.106 9413.106 0 0 0-22.75-6.978c-.69-.202-1.25-.766-1.25-1.253 0-.486 2.81-.288 6.25.442 3.44.729 17.73 3.399 31.75 5.933Zm1881 21.204v27.757l-4.75-.372c-2.61-.205-5.01-.789-5.33-1.299-.33-.51-.24-3.046.19-5.635 1.05-6.373 1.05-13.413 0-15.067-1.53-2.42-9.27-2.591-14-.309l-4.24 2.051-9.19-2.804c-8.66-2.646-13.53-3.906-35.18-9.098-4.95-1.187-15.3-3.688-23-5.556-7.7-1.869-15.12-3.423-16.5-3.453-1.37-.031-4.06-.885-5.96-1.899l-3.46-1.843 15.96-.661c30.69-1.273 63.43-3.606 71.17-5.071 6.64-1.259 26.94-3.989 32.54-4.377 1.63-.113 1.75 1.821 1.75 27.636Zm-1523.43-15.834c-2.88 3.187-8.75 6.827-14.57 9.047l-5.5 2.096 6.64-6.533c6.08-5.985 7-6.533 10.91-6.533 4.14 0 4.21.054 2.52 1.923Zm-17.7.734c-.75.911-4.97 4.665-9.37 8.342-7.65 6.388-8.33 6.735-15.47 7.794-4.1.609-7.53 1.017-7.61.907-.08-.11-.39-2.968-.68-6.35l-.53-6.15 7.69-1.124c5.78-.846 21.54-3.762 26.97-4.992.21-.046-.24.662-1 1.573Zm-540.71 1.363c-2.64 2.2-9.69 4.386-11.18 3.466-2.08-1.285-.76-2.327 4.77-3.779 8.02-2.104 9.24-2.045 6.41.313Zm2755.84 9.384c5.78.855 20.18 2.469 32 3.586 21.64 2.045 37.5 3.993 49.5 6.084l6.5 1.131v4.898c0 2.693-.21 4.897-.46 4.897s-4.86-1.112-10.25-2.471c-5.93-1.498-19.63-3.487-34.79-5.05-27.69-2.857-31.37-3.413-69.69-10.525-14.68-2.725-26.94-4.954-27.25-4.954-.31 0-.56-1.493-.56-3.317v-3.317l22.25 3.741c12.24 2.058 26.98 4.441 32.75 5.297Zm-3226.357-4.313c7.072 1.7 21.633 4.372 32.358 5.938 10.725 1.565 25.35 3.75 32.5 4.854 36.45 5.631 82.586 6.529 111 2.161 7.15-1.099 14.913-2.008 17.25-2.021 3.752-.02 4.248.241 4.236 2.227-.056 9.225-.265 9.252-71.986 9.24-61.588-.011-65.699-.215-112-5.571-25.692-2.971-62.388-8.919-55.032-8.919.715 0 5.628-2.089 10.916-4.643 5.289-2.554 11.416-4.972 13.616-5.375 2.2-.402 4.064-.788 4.142-.857.079-.069 5.929 1.266 13 2.966Zm453.357-1.617c0 .261-1.33 1.161-2.95 2-2.74 1.416-13.1 2.244-11.8.944 1.55-1.55 14.75-4.184 14.75-2.944Zm-34 8.421c-2.45 1.367-7.64 2.381-6.5 1.273 1.03-.997 3.83-1.869 6.5-2.022 1.33-.076 1.33.008 0 .749Zm564.96 11.649c-4.29 4.368-4.48 4.455-5.11 2.25-1.59-5.607-1.01-6.149 7.11-6.644 2.28-.139 2.13.18-2 4.394Zm-745.459 2.337c19.406 4.807 33.97 5.949 61.499 4.821 20.35-.833 9.39.78-15.75 2.318-19.508 1.194-57.122.936-60.283-.414-.898-.383-1.481-1.785-1.406-3.38.335-7.152.406-7.371 2.19-6.839.962.287 7.15 1.86 13.75 3.494Zm127.999-1.404 5 1.388-4.5.076c-2.47.042-6.97.364-10 .717l-5.5.64 1.91-2.149c2.22-2.51 5.81-2.694 13.09-.672Zm-19.25 1.185c-.69.278-1.81.278-2.5 0-.69-.277-.12-.504 1.25-.504 1.38 0 1.94.227 1.25.504Zm-6.75 1.338c.34.55-.33 1-1.5 1-1.16 0-1.84-.45-1.5-1 .34-.55 1.02-1 1.5-1 .49 0 1.16.45 1.5 1Zm2197.5 10c0 3.592-.25 4-2.48 4-4.82 0-4.1-7.857.73-7.962 1.38-.03 1.75.805 1.75 3.962Zm-3241.249-.169c1.73 2.146 1.566 5.834-.29 6.546-3.689 1.416-8.035-4.774-5.499-7.831 1.336-1.608 3.92-1.035 5.79 1.285Zm871.066 2.532c.272 2.262-.058 2.637-2.315 2.637-3.028 0-6.501-1.621-6.501-3.035 0-.531.933-1.898 2.073-3.038 1.863-1.863 2.295-1.928 4.25-.637 1.197.79 2.319 2.623 2.493 4.073ZM84.63 181.961h21.701l.604 7.207c.333 3.965.424 7.388.204 7.609-1.149 1.148-63.59-13.889-62.824-15.129.36-.584 4.162-.713 9.605-.326 4.954.351 18.774.639 30.71.639Zm-72.494 1.024c.348.564.34 2.364-.02 4.001-1.193 5.431-8.495 4.916-8.495-.598 0-1.28.787-2.786 1.75-3.347 2.28-1.327 5.961-1.357 6.765-.056Z" clip-rule="evenodd"/>
  <path fill="#35678B" d="M13 186c0 3.314-2.462 5-5.5 5S2 189.314 2 186s2.462-6 5.5-6 5.5 2.686 5.5 6Z"/>
  <ellipse cx="35" cy="181.5" fill="#C22424" rx="5" ry="5.5"/>
  <ellipse cx="20.5" cy="184" fill="#D1992C" rx="5.5" ry="6"/>
</svg>
