<svg xmlns="http://www.w3.org/2000/svg" xml:space="preserve" viewBox="0 0 256 256" fill="currentColor">
  <path fill="currentColor" stroke-miterlimit="10" stroke-width="0" d="M45-.228c-24.853 0-45 20.25-45 45.229 0 22.806 16.797 41.66 38.633 44.77V58.779h-10.64V46.328h10.64v-9.182c0-10.656 6.441-16.458 15.849-16.458 4.506 0 8.38.339 9.508.491v11.136l-6.525.003c-5.116 0-6.107 2.457-6.107 6.061v7.949H63.56l-1.589 12.451H51.359v30.993C73.199 86.666 90 67.81 90 45.001 90 20.022 69.853-.228 45-.228z" transform="translate(1.964 1.964) scale(2.8008)"/>
</svg>